<?xml version="1.0" standalone="no"?>
<!DOCTYPE svg PUBLIC "-//W3C//DTD SVG 20010904//EN"
 "http://www.w3.org/TR/2001/REC-SVG-20010904/DTD/svg10.dtd">
<svg version="1.0" xmlns="http://www.w3.org/2000/svg"
 width="500.000000pt" height="500.000000pt" viewBox="0 0 500.000000 500.000000"
 preserveAspectRatio="xMidYMid meet">

<g transform="translate(0.000000,500.000000) scale(0.100000,-0.100000)"
fill="#000000" stroke="none">
<path d="M2396 4670 c-43 -13 -101 -57 -130 -98 -35 -51 -54 -109 -66 -205 -5
-45 -15 -83 -20 -85 -6 -2 -10 -13 -10 -24 0 -17 3 -18 15 -8 8 6 18 9 23 6 5
-3 12 39 15 93 8 151 44 218 142 268 135 69 322 17 385 -108 21 -39 45 -206
36 -237 -5 -15 -1 -18 16 -18 21 1 23 -3 21 -39 -1 -30 1 -35 7 -20 13 30 12
62 -3 77 -8 7 -19 54 -25 103 -18 137 -28 165 -81 215 -61 60 -140 90 -229 89
-37 0 -80 -5 -96 -9z"/>
<path d="M2483 4553 c9 -2 23 -2 30 0 6 3 -1 5 -18 5 -16 0 -22 -2 -12 -5z"/>
<path d="M2430 4519 c47 -17 61 -18 95 -8 66 19 85 29 40 22 -22 -3 -47 -9
-56 -14 -9 -5 -36 -2 -64 6 -70 21 -80 17 -15 -6z"/>
<path d="M2310 4464 c-9 -3 -21 -13 -27 -23 -12 -18 -11 -19 15 -5 38 20 62
18 116 -11 l46 -24 0 24 c0 17 -7 26 -22 29 -42 9 -113 14 -128 10z"/>
<path d="M2600 4461 c-53 -8 -70 -17 -70 -37 0 -19 20 -18 49 2 13 10 45 17
77 18 46 1 52 3 37 14 -18 13 -23 13 -93 3z"/>
<path d="M2589 4386 c-23 -7 -35 -18 -37 -32 -3 -23 21 -54 41 -54 7 0 6 4 -3
10 -11 7 -3 10 30 10 25 0 52 5 60 10 26 18 -17 42 -67 38 -24 -2 -38 1 -33 6
4 4 26 7 48 4 22 -2 39 0 36 3 -8 14 -42 16 -75 5z m16 -46 c8 -13 -5 -13 -25
0 -13 8 -13 10 2 10 9 0 20 -4 23 -10z m65 0 c0 -5 -7 -10 -16 -10 -8 0 -12 5
-9 10 3 6 10 10 16 10 5 0 9 -4 9 -10z"/>
<path d="M2375 4380 c38 -7 38 -7 8 -9 -35 -1 -83 -20 -83 -32 0 -12 29 -19
78 -19 34 0 43 -3 32 -10 -8 -5 -10 -10 -4 -10 14 0 44 33 44 48 0 24 -32 42
-73 41 l-42 -2 40 -7z m40 -30 c3 -5 1 -10 -4 -10 -6 0 -11 5 -11 10 0 6 2 10
4 10 3 0 8 -4 11 -10z m-68 -6 c-3 -3 -12 -4 -19 -1 -8 3 -5 6 6 6 11 1 17 -2
13 -5z"/>
<path d="M2260 4333 c0 -21 3 -24 9 -14 5 8 7 20 4 28 -8 21 -13 15 -13 -14z"/>
<path d="M2727 4353 c-3 -5 -1 -17 4 -28 7 -17 8 -17 8 8 1 27 -4 34 -12 20z"/>
<path d="M2746 4235 c-4 -33 -11 -101 -14 -152 -4 -52 -13 -98 -19 -105 -10
-10 -13 -3 -14 32 l0 45 -17 -45 c-23 -60 -84 -92 -175 -93 -114 -1 -170 34
-186 114 l-9 44 -2 -35 c-2 -19 -3 -43 -2 -52 3 -29 -15 -20 -32 17 -14 28
-15 42 -6 77 9 35 8 54 -8 103 l-18 60 4 -92 c4 -80 2 -93 -11 -93 -9 0 -23
10 -31 22 -12 17 -16 18 -16 6 0 -8 7 -21 15 -28 16 -13 20 -102 7 -174 -7
-39 -8 -39 -68 -52 -34 -7 -79 -21 -100 -32 -66 -33 -157 -106 -198 -158 -29
-36 -57 -57 -103 -78 -130 -59 -183 -133 -204 -283 -8 -60 -18 -89 -44 -128
-19 -27 -38 -62 -44 -77 -23 -60 -51 -244 -51 -331 0 -69 -5 -108 -21 -152
-26 -73 -35 -203 -19 -265 6 -25 15 -119 19 -210 7 -144 12 -174 35 -235 81
-210 87 -241 62 -360 -15 -74 -26 -94 -52 -95 -5 0 -36 78 -67 173 -88 264
-190 461 -259 498 -15 8 -51 3 -149 -21 -142 -35 -142 -36 -164 -119 l-11 -45
-70 -18 c-43 -10 -76 -25 -86 -38 -21 -26 -38 -83 -38 -126 0 -31 -2 -32 -68
-49 -37 -9 -75 -23 -84 -32 -25 -23 -39 -73 -46 -170 l-7 -87 -48 -14 c-69
-19 -82 -49 -82 -182 1 -77 7 -125 23 -183 29 -100 82 -207 127 -252 38 -37
70 -44 133 -26 30 9 33 7 48 -21 22 -42 94 -118 122 -129 17 -7 43 -4 85 8
l61 17 20 -30 c12 -16 40 -48 62 -71 47 -49 63 -52 157 -27 l62 17 37 -37 c20
-20 44 -36 53 -36 21 0 213 47 242 60 46 19 58 63 57 210 -1 138 -9 213 -46
403 -11 59 -19 110 -16 113 3 2 18 0 33 -6 16 -6 41 -8 56 -5 15 3 30 2 33 -4
6 -10 94 -9 112 1 5 3 21 8 36 12 17 4 35 21 52 50 30 52 27 51 226 71 288 30
991 29 1133 -1 19 -5 36 -20 53 -50 14 -24 30 -45 35 -45 5 -1 15 -2 22 -3 6
-1 15 -5 18 -10 9 -12 117 -17 125 -5 3 6 18 7 33 4 15 -3 40 -1 56 5 15 6 30
8 33 6 3 -3 -5 -54 -16 -113 -37 -190 -45 -265 -46 -403 -1 -147 11 -191 57
-210 29 -13 221 -60 242 -60 9 0 33 16 53 36 l37 37 62 -17 c94 -25 110 -22
157 27 22 23 50 55 62 72 l21 29 61 -17 c41 -11 69 -14 84 -8 28 11 100 87
122 129 15 28 18 30 48 21 63 -18 95 -11 133 26 45 45 98 152 127 252 16 58
22 106 23 183 0 133 -13 163 -82 182 l-48 14 -7 87 c-7 97 -21 147 -46 170 -9
9 -47 23 -84 32 -66 17 -68 18 -68 49 0 43 -17 100 -38 126 -10 13 -43 28 -86
38 l-70 18 -11 45 c-22 83 -22 84 -164 119 -98 24 -134 29 -149 21 -69 -37
-171 -234 -259 -498 -31 -95 -62 -173 -67 -173 -26 1 -37 22 -52 99 -18 96
-15 116 49 301 35 104 40 128 47 260 4 80 13 169 20 199 17 76 8 230 -19 303
-16 43 -21 81 -21 152 0 92 -26 259 -50 320 -6 16 -26 50 -44 75 -27 37 -35
59 -40 112 -3 36 -13 87 -22 112 -29 85 -121 168 -219 197 -30 9 -46 22 -67
55 -46 76 -211 182 -311 200 -47 9 -56 25 -63 119 -6 65 -4 78 15 110 16 25
21 46 18 73 l-4 38 -1 -41 c-2 -47 -34 -86 -54 -66 -9 9 -9 32 0 96 7 50 9 93
4 107 -8 20 -10 13 -16 -36z m-471 -290 c37 -81 132 -289 139 -305 3 -8 3 1 0
20 -3 19 -21 68 -40 109 -33 70 -43 121 -26 121 5 0 37 -19 71 -42 78 -52 105
-53 162 -4 24 20 48 35 53 33 17 -6 7 -75 -20 -139 -13 -31 -24 -65 -24 -74 0
-20 77 136 105 211 10 28 23 56 28 62 5 7 15 29 22 49 l12 36 7 -69 c9 -94 37
-245 48 -263 9 -15 9 -13 -8 84 l-7 39 44 -7 c99 -15 243 -108 303 -195 16
-22 35 -41 43 -41 28 0 109 -50 150 -92 49 -51 89 -133 98 -204 15 -116 -49
-294 -106 -294 -25 0 -148 100 -192 155 -42 55 -45 51 -17 -30 42 -122 19
-165 -119 -221 -72 -30 -9 -28 92 2 16 5 17 3 8 -14 -21 -40 -231 -55 -365
-27 -90 19 -154 57 -172 102 -30 71 -37 136 -26 247 10 104 37 186 80 241 8
11 -5 0 -29 -25 -24 -25 -54 -58 -65 -74 l-21 -29 -42 61 c-57 85 -93 104 -46
25 73 -124 74 -400 3 -480 -28 -30 -101 -59 -183 -74 -78 -13 -252 -7 -302 11
-38 14 -47 46 -10 34 89 -29 168 -33 90 -4 -29 10 -72 31 -95 47 -62 41 -69
77 -34 179 l26 79 -51 -58 c-63 -71 -160 -147 -188 -147 -28 0 -77 76 -92 145
-6 29 -10 88 -7 131 6 90 29 148 85 213 39 46 126 101 160 101 13 0 24 8 28
19 3 11 37 49 75 84 73 70 166 121 239 133 l44 7 -8 -58 c-4 -32 -9 -65 -12
-74 -4 -14 -3 -13 6 1 14 20 51 234 52 296 0 26 3 40 6 32 3 -8 15 -37 28 -65z
m-747 -866 l12 33 51 -98 c45 -89 50 -104 46 -151 -4 -58 7 -63 17 -8 10 52
50 92 109 110 71 21 75 20 86 -22 29 -116 18 -225 -35 -343 -44 -98 -128 -158
-163 -116 -7 8 -21 31 -31 52 -18 35 -19 36 -13 9 l6 -29 -29 18 c-27 17 -26
15 8 -20 96 -101 120 -268 68 -464 -14 -56 -19 -105 -19 -190 1 -115 15 -123
19 -10 2 65 33 201 41 180 3 -8 0 -53 -7 -100 -14 -92 -16 -237 -4 -285 l8
-30 1 27 c1 27 2 26 45 -20 42 -45 76 -100 76 -122 0 -20 -47 -10 -58 13 -10
18 -11 12 -6 -33 12 -126 10 -171 -10 -186 -11 -8 -29 -11 -43 -8 -13 4 -37 1
-53 -6 -21 -9 -38 -9 -59 -2 -20 7 -32 7 -39 0 -19 -19 -42 0 -43 34 0 32 -1
32 -10 9 -5 -14 -7 -31 -4 -39 3 -8 0 -12 -7 -9 -17 5 -12 164 8 231 31 107
19 198 -50 379 -31 82 -48 188 -37 237 l7 35 32 -66 c17 -37 38 -72 47 -79 8
-7 -5 30 -29 81 -85 182 -104 309 -68 440 12 41 28 110 36 153 9 44 22 86 30
94 12 12 16 7 26 -42 6 -31 13 -56 16 -56 2 0 3 55 3 123 -1 115 -2 119 -13
72 -6 -27 -20 -60 -31 -73 -11 -12 -25 -39 -31 -60 l-12 -37 -1 60 c-1 66 39
257 66 320 l18 40 5 -40 5 -40 13 34z m1988 6 c38 -91 64 -239 63 -355 -1 -93
3 -128 21 -185 18 -58 21 -85 17 -165 -4 -84 -9 -105 -45 -187 -23 -51 -51
-112 -63 -135 -17 -33 -18 -40 -5 -29 9 7 31 43 48 80 l32 66 7 -35 c13 -57
-7 -159 -56 -288 -39 -106 -45 -131 -45 -200 0 -43 6 -101 14 -128 20 -67 25
-226 8 -231 -7 -3 -10 1 -7 9 3 8 1 25 -4 39 -9 23 -10 23 -10 -9 -1 -34 -24
-53 -43 -34 -7 7 -19 7 -39 0 -21 -7 -38 -7 -59 2 -16 7 -40 10 -53 6 -14 -3
-32 0 -43 8 -20 15 -22 60 -10 186 5 45 4 51 -6 33 -11 -23 -58 -33 -58 -13 0
22 34 77 76 122 43 46 44 47 45 20 1 -22 3 -20 11 13 9 36 7 139 -7 315 l-5
65 20 -70 c11 -38 20 -92 21 -120 2 -107 17 -99 18 10 1 76 -5 135 -18 190
-10 44 -22 103 -26 131 -12 96 33 252 93 319 15 17 20 24 12 18 -22 -20 -28
-16 -23 15 4 24 2 24 -12 -8 -48 -104 -115 -90 -182 37 -61 114 -78 233 -52
354 l11 51 41 -6 c72 -12 120 -45 137 -96 27 -76 28 -77 27 -10 0 60 3 72 41
136 23 39 42 76 42 82 0 25 20 11 21 -15 1 -25 3 -24 12 10 6 20 12 37 14 37
2 0 11 -16 19 -35z m-1088 -266 c67 -23 70 -162 4 -187 -15 -6 -91 -13 -168
-16 -115 -5 -144 -4 -153 8 -31 37 34 122 125 162 44 19 75 28 155 43 3 0 20
-4 37 -10z m303 -15 c106 -31 195 -110 187 -166 -3 -26 15 -25 -203 -12 -66 3
-128 11 -137 15 -36 19 -41 124 -8 164 16 20 92 19 161 -1z m-696 -95 c-41
-88 -31 -115 53 -140 l43 -13 -30 -23 c-52 -41 -36 -108 32 -137 19 -9 25 -15
15 -15 -24 -1 -31 -17 -17 -43 11 -21 10 -21 -22 5 -19 15 -52 39 -74 54 -37
25 -38 26 -17 34 18 7 22 16 22 51 0 51 -7 63 -40 73 -27 8 -85 59 -101 87 -8
15 -5 17 28 15 32 -2 39 2 59 33 28 43 64 84 70 77 2 -2 -7 -28 -21 -58z m957
32 c12 -16 31 -43 40 -60 18 -33 44 -39 79 -20 19 10 20 9 6 -18 -20 -38 -55
-69 -98 -87 -53 -22 -67 -78 -29 -116 19 -19 19 -19 -13 -41 -18 -12 -49 -38
-71 -58 -30 -28 -36 -31 -26 -13 14 29 7 52 -17 53 -10 0 1 9 24 19 34 15 44
26 54 59 11 36 10 43 -6 61 -10 11 -27 22 -39 26 -16 5 -9 11 39 28 58 20 60
22 63 59 2 26 -4 52 -22 84 -29 51 -30 53 -17 53 5 0 20 -13 33 -29z m-553
-204 c29 -14 46 -58 37 -94 -7 -25 -7 -25 -28 -7 -17 16 -42 20 -154 24 -141
5 -169 14 -148 48 6 9 26 22 45 29 46 16 217 16 248 0z m431 -12 c52 -47 12
-66 -134 -63 -104 3 -117 1 -144 -19 l-30 -22 -4 22 c-7 36 10 83 34 95 15 8
66 11 140 9 97 -3 121 -6 138 -22z m391 -120 c17 -19 17 -26 4 -115 -20 -129
-19 -213 5 -355 31 -189 25 -240 -35 -279 -15 -10 -38 -42 -52 -72 -23 -51
-39 -71 -49 -62 -6 7 43 115 55 123 6 3 11 15 11 27 0 31 -47 180 -91 284 -21
52 -39 105 -39 118 0 13 16 65 35 115 19 49 35 104 35 121 0 20 15 53 41 92
37 54 43 59 52 42 5 -10 18 -28 28 -39z m-1427 -10 c20 -30 36 -60 36 -66 0
-6 16 -46 35 -89 49 -108 47 -142 -15 -313 -28 -76 -62 -163 -75 -194 -30 -67
-31 -77 -5 -113 11 -16 27 -48 35 -71 17 -48 18 -49 7 -49 -5 0 -19 25 -31 56
-14 32 -36 64 -53 77 -64 47 -70 93 -38 277 24 136 26 235 9 376 l-13 104 29
30 c16 16 32 30 35 30 4 0 24 -25 44 -55z m618 -32 c12 -10 18 -30 18 -57 0
-40 0 -40 -16 -17 -29 41 -73 52 -157 39 -41 -6 -83 -8 -93 -3 -16 6 -11 11
31 31 63 30 187 34 217 7z m352 -3 c16 -8 31 -21 34 -27 3 -10 -17 -11 -86 -7
-106 8 -135 2 -168 -33 l-24 -26 0 35 c0 36 14 62 40 72 28 11 175 1 204 -14z
m-720 -239 c55 -16 139 -37 186 -46 47 -10 87 -19 90 -22 10 -11 -98 8 -219
37 -67 17 -124 30 -126 30 -1 0 -5 -18 -7 -40 -4 -40 -3 -41 37 -51 83 -21
249 -69 252 -73 9 -9 -101 8 -193 30 -56 13 -105 24 -108 24 -3 0 -13 -18 -22
-40 -24 -60 -26 -44 -2 25 16 49 18 66 9 96 -12 41 -14 59 -5 59 3 0 52 -13
108 -29z m962 12 c-18 -47 -17 -100 3 -152 25 -67 21 -80 -5 -17 -11 25 -24
46 -29 46 -6 0 -41 -9 -80 -20 -38 -11 -99 -22 -135 -25 l-65 -5 65 20 c36 12
97 29 135 39 l70 19 3 41 c4 46 4 46 -64 27 -69 -21 -248 -56 -276 -55 -12 0
27 12 87 25 61 13 144 35 185 48 94 30 114 32 106 9z m1048 -71 c62 -15 70
-20 82 -49 22 -51 17 -73 -7 -32 -26 44 -60 65 -128 80 -28 6 -54 15 -57 21
-5 8 1 9 17 4 13 -3 55 -14 93 -24z m-3078 -1 c-4 -5 -29 -14 -57 -20 -68 -15
-102 -36 -128 -80 -15 -27 -20 -31 -20 -16 0 11 6 33 12 49 11 26 23 33 92 52
93 25 108 27 101 15z m3090 -172 c38 -12 74 -25 79 -29 10 -8 2 -207 -10 -238
-3 -9 -21 -4 -64 18 -33 16 -64 30 -68 30 -5 0 -16 -39 -26 -86 -10 -47 -34
-138 -53 -202 -48 -157 -161 -458 -170 -449 -2 1 24 86 57 187 91 279 142 510
155 696 5 65 11 94 19 94 7 0 44 -9 81 -21z m198 0 c40 -10 50 -17 62 -45 20
-47 18 -49 -14 -13 -18 20 -45 35 -77 43 -27 7 -51 19 -53 26 -3 8 2 10 14 7
11 -4 41 -11 68 -18z m-3526 -11 c-2 -6 -26 -17 -53 -24 -32 -8 -59 -23 -77
-43 -32 -36 -34 -34 -14 13 12 29 22 35 72 49 75 19 76 19 72 5z m216 -82 c13
-190 64 -417 160 -711 36 -110 64 -201 62 -202 -6 -6 -125 305 -165 430 -22
71 -51 176 -63 233 -13 57 -27 104 -31 104 -4 0 -35 -14 -68 -30 -43 -22 -61
-27 -64 -18 -12 31 -20 230 -10 238 12 10 134 49 156 49 13 1 17 -16 23 -93z
m3400 -96 c8 0 0 -141 -13 -227 l-6 -42 -74 35 c-41 19 -75 33 -77 32 -1 -2
-12 -41 -24 -88 -24 -94 -137 -436 -152 -460 -8 -13 -9 -13 -5 1 75 245 148
566 162 709 9 95 3 91 97 64 46 -13 87 -24 92 -24z m-3600 -52 c13 -146 86
-465 163 -717 4 -14 3 -14 -5 -1 -15 24 -128 366 -152 460 -12 47 -23 86 -24
88 -2 1 -36 -13 -77 -32 l-74 -35 -6 42 c-4 23 -10 83 -14 133 l-7 91 88 25
c49 13 92 23 95 22 3 -2 9 -36 13 -76z m3701 29 c51 -13 64 -28 79 -87 5 -18
1 -15 -13 11 -19 35 -77 69 -116 69 -7 0 -17 5 -20 10 -8 13 9 12 70 -3z
m-3920 -17 c-3 -5 -13 -10 -20 -10 -38 0 -93 -33 -114 -68 -16 -27 -20 -30
-15 -12 15 55 32 75 76 86 55 15 81 17 73 4z m3069 -154 c-9 -37 -19 -64 -22
-62 -3 3 3 35 13 71 23 86 31 78 9 -9z m-2266 -71 c0 -23 -23 45 -31 95 -4 24
0 17 13 -20 10 -30 19 -64 18 -75z m3140 65 l72 -24 0 -88 c0 -66 -3 -90 -14
-94 -7 -3 -47 6 -87 19 -41 14 -75 24 -77 22 -1 -1 -18 -60 -37 -131 -33 -127
-104 -338 -111 -331 -2 2 16 63 41 137 48 143 76 263 95 405 7 50 14 96 16
103 4 15 3 15 102 -18z m-1469 -1 c91 -5 166 -11 167 -12 2 -1 0 -22 -3 -46
l-6 -43 -56 6 c-31 3 -180 8 -331 11 l-275 4 210 -13 c402 -26 435 -29 435
-38 0 -6 -23 -7 -57 -4 -343 38 -790 34 -1181 -10 -128 -14 -166 -14 -151 1 6
5 253 31 489 50 l175 14 -170 -5 c-93 -2 -244 -11 -334 -19 -91 -8 -166 -13
-167 -12 0 1 -4 21 -8 45 -5 32 -3 42 8 42 7 0 78 7 157 16 279 31 717 36
1098 13z m-2448 -112 c23 -162 43 -245 95 -399 24 -72 42 -133 40 -135 -7 -7
-78 204 -111 331 -19 71 -36 130 -38 132 -2 2 -38 -9 -80 -25 -42 -16 -79 -26
-82 -22 -2 4 -7 48 -11 97 l-7 89 79 27 c44 14 83 25 89 24 5 -2 17 -55 26
-119z m3079 14 c64 -14 75 -20 78 -40 7 -48 0 -50 -105 -26 l-98 21 -3 37 c-4
42 -16 41 128 8z m-2232 -28 l-3 -37 -98 -21 c-106 -24 -112 -22 -105 27 3 20
14 25 98 44 52 12 99 23 103 23 5 1 7 -16 5 -36z m3240 -4 c27 -11 52 -65 51
-111 -1 -26 -3 -23 -10 17 -9 57 -36 85 -80 85 -28 0 -44 12 -32 24 6 6 24 2
71 -15z m-4306 -14 c1 -6 -16 -13 -36 -16 -50 -8 -66 -26 -75 -85 -8 -43 -9
-45 -10 -14 -2 52 28 101 69 116 39 14 51 13 52 -1z m3269 -67 c44 -11 79 -24
79 -28 0 -6 -25 -2 -147 25 -13 3 -23 10 -23 15 0 13 1 13 91 -12z m-2211 -7
c0 -5 -35 -17 -77 -27 -43 -9 -81 -19 -85 -21 -5 -2 -8 0 -8 5 0 5 35 19 78
30 94 24 92 24 92 13z m2146 -38 c-7 -25 -42 -202 -70 -363 -27 -151 -33 -124
-11 44 14 109 53 314 62 329 9 15 24 7 19 -10z m-2129 -114 c24 -116 54 -324
52 -372 0 -18 -12 29 -25 103 -29 165 -63 338 -70 364 -4 13 -2 17 7 14 9 -3
23 -46 36 -109z m3213 71 c64 -32 66 -37 49 -106 -13 -49 -18 -51 -79 -29 -23
8 -43 15 -44 15 -2 0 -17 -34 -36 -75 -18 -42 -34 -74 -36 -72 -3 2 7 33 20
68 20 55 31 96 52 207 2 12 7 22 9 22 3 0 32 -14 65 -30z m-4264 -27 c11 -66
34 -153 55 -205 31 -79 15 -67 -21 17 -19 41 -34 75 -36 75 -1 0 -21 -7 -44
-15 -23 -8 -48 -15 -55 -15 -12 0 -35 69 -35 104 0 13 99 74 122 76 4 0 10
-17 14 -37z"/>
<path d="M2239 3550 c-14 -20 -20 -20 -197 -13 -173 8 -182 7 -182 -10 0 -11
-18 -39 -39 -63 -22 -25 -44 -59 -50 -77 l-10 -32 17 25 c40 57 77 91 128 116
60 29 117 34 249 20 l80 -8 12 31 c13 36 11 39 -8 11z"/>
<path d="M2758 3534 l5 -27 81 9 c204 21 283 -5 367 -120 16 -21 29 -36 29
-32 0 16 -42 88 -71 121 -18 20 -29 41 -26 50 5 11 0 13 -21 10 -15 -2 -96 -7
-181 -10 -130 -4 -157 -3 -171 10 -16 14 -17 14 -12 -11z"/>
<path d="M2497 3532 c-32 -3 -36 -6 -26 -18 15 -18 43 -18 59 1 16 19 14 21
-33 17z"/>
<path d="M1525 1733 c15 -40 35 -169 36 -236 1 -68 2 -70 11 -32 5 22 7 67 3
100 -6 58 -41 185 -52 185 -3 0 -2 -8 2 -17z"/>
<path d="M1607 1480 c-13 -55 -18 -122 -8 -116 12 8 24 84 19 117 l-4 24 -7
-25z"/>
<path d="M1651 1443 c1 -80 17 -98 18 -20 1 38 -3 67 -9 67 -5 0 -10 -21 -9
-47z"/>
<path d="M3492 2875 c0 -38 3 -97 7 -130 l7 -60 8 53 c4 28 11 52 16 52 4 0
15 -17 23 -37 11 -27 16 -32 16 -17 1 12 -11 39 -26 60 -14 21 -32 64 -39 94
l-12 55 0 -70z"/>
<path d="M3451 1708 c-25 -79 -35 -171 -23 -223 7 -35 9 -27 15 65 3 58 12
130 21 160 20 76 12 75 -13 -2z"/>
<path d="M3384 1461 c2 -35 9 -68 16 -75 8 -8 9 5 4 49 -9 85 -26 107 -20 26z"/>
<path d="M3331 1443 c0 -47 3 -62 9 -48 12 28 12 115 0 115 -6 0 -10 -29 -9
-67z"/>
<path d="M2300 4217 c5 -16 10 -43 10 -60 1 -27 2 -29 11 -14 13 21 6 54 -16
82 -14 19 -15 19 -5 -8z"/>
<path d="M2412 4203 c-26 -50 -29 -67 -6 -34 14 19 23 22 51 18 24 -4 33 -2
30 6 -2 7 -12 12 -23 12 -10 0 -22 9 -25 20 -5 17 -9 13 -27 -22z"/>
<path d="M2564 4222 c1 -12 -5 -16 -21 -14 -15 2 -23 -2 -23 -11 0 -10 8 -13
26 -9 17 3 33 -3 51 -19 l25 -24 -21 42 c-23 46 -39 62 -37 35z"/>
<path d="M2683 4205 c-13 -27 -14 -39 -5 -57 10 -22 11 -22 11 9 1 17 5 43 11
57 14 38 2 32 -17 -9z"/>
<path d="M2791 4221 c-8 -14 -7 -20 4 -25 11 -4 15 2 15 19 0 30 -6 32 -19 6z"/>
<path d="M2190 4209 c0 -14 5 -19 14 -16 11 4 13 -5 10 -43 -4 -59 12 -77 18
-19 4 43 -14 99 -32 99 -5 0 -10 -9 -10 -21z"/>
<path d="M2171 4204 c0 -11 3 -14 6 -6 3 7 2 16 -1 19 -3 4 -6 -2 -5 -13z"/>
<path d="M2770 4146 c0 -26 5 -46 11 -46 6 0 9 10 8 23 -2 12 0 27 4 33 4 7 0
17 -8 24 -13 11 -15 6 -15 -34z"/>
<path d="M2181 4164 c0 -11 3 -14 6 -6 3 7 2 16 -1 19 -3 4 -6 -2 -5 -13z"/>
<path d="M2410 4114 c-22 -12 -16 -20 12 -15 4 0 46 2 93 2 47 1 88 5 90 10
14 21 -157 24 -195 3z"/>
<path d="M2358 4101 c-6 -21 7 -79 16 -70 2 2 1 24 -3 49 -5 37 -8 41 -13 21z"/>
<path d="M2635 4104 c3 -12 1 -34 -5 -50 -9 -27 -9 -28 5 -10 18 23 19 45 4
66 -8 12 -9 11 -4 -6z"/>
<path d="M2420 4069 c0 -29 113 -40 146 -13 18 14 16 15 -26 10 -25 -3 -62 -1
-83 3 -20 5 -37 5 -37 0z"/>
<path d="M2481 3946 c-22 -12 -20 -13 34 -14 31 0 53 3 49 8 -17 17 -59 20
-83 6z"/>
</g>
</svg>
